<svg xmlns="http://www.w3.org/2000/svg" width="22" height="22" color='red' viewBox="0 0 22 22"><defs><style>.a,.b{fill:none;stroke-linejoin:round;}.b{stroke-linecap:round;}</style></defs><g transform="translate(-241 -720.999)"><g transform="translate(251.334 731.334)"><circle class="a" cx="5.5" cy="5.5" r="5.5" transform="translate(0.166 0.166)"/><g transform="translate(4.121 1.984)"><path class="b" d="M257.109,739.378a1.244,1.244,0,1,0,1.244-1.245,1.243,1.243,0,1,1,1.244-1.243" transform="translate(-257.109 -734.817)"/><line class="b" y2="0.828" transform="translate(1.244 5.804)"/><line class="b" y2="0.829" transform="translate(1.244)"/></g></g><g transform="translate(241.5 721.499)"><path class="b" d="M257.592,725.075v-1.788H245.97V721.5H241.5v13.857a1.341,1.341,0,1,0,2.682,0V725.075h15.2v4.917" transform="translate(-241.5 -721.499)"/><line class="b" x2="6.705" transform="translate(1.341 15.199)"/></g></g></svg>