<svg xmlns="http://www.w3.org/2000/svg" width="21.93" height="20.668" viewBox="0 0 21.93 20.668"><defs><style>.a{fill:none;stroke-linecap:round;stroke-linejoin:round;}</style></defs><g transform="translate(-384.816 -1874)"><path class="a" d="M402.122,1886.122V1874.5H390.5v11.622" transform="translate(-0.53)"/><line class="a" x2="1" transform="translate(392.5 1877.5)"/><line class="a" x2="4" transform="translate(394.5 1878.5)"/><line class="a" x2="6" transform="translate(392.5 1880.5)"/><line class="a" x2="6" transform="translate(392.5 1882.5)"/><line class="a" x2="6" transform="translate(392.5 1884.5)"/><path class="a" d="M406.063,1895.758H385.5V1889.5h6.705v.894a1.793,1.793,0,0,0,1.788,1.788h4.023a1.793,1.793,0,0,0,1.788-1.788v-.894h6.258Z" transform="translate(0 -1.59)"/><path class="a" d="M385.5,1888.864l3.129-5.364h1.341" transform="translate(0 -0.954)"/><path class="a" d="M403.5,1883.5h1.341l3.129,5.364" transform="translate(-1.908 -0.954)"/></g></svg>