<svg xmlns="http://www.w3.org/2000/svg" width="16" height="21.294" viewBox="0 0 16 21.294"><defs><style>.a{fill:none;stroke-linecap:round;stroke-linejoin:round;}</style></defs><g transform="translate(-1036 -673)"><path class="a" d="M1039.813,683.091a1.489,1.489,0,1,0,1.489-1.489,1.489,1.489,0,1,1,1.49-1.489" transform="translate(-0.39 -0.603)"/><line class="a" y2="0.993" transform="translate(1040.912 683.978)"/><line class="a" y2="0.992" transform="translate(1040.912 677.03)"/><g transform="translate(1036.5 673.5)"><path class="a" d="M1051.5,693.794h-15V673.5h9.706l5.294,5.294Z" transform="translate(-1036.5 -673.5)"/><path class="a" d="M1047.5,673.5v5.294h5.294" transform="translate(-1037.794 -673.5)"/></g><line class="a" x2="9.633" transform="translate(1039.22 687.618)"/><line class="a" x2="4.398" transform="translate(1044.455 685.853)"/><line class="a" x2="2" transform="translate(1046.5 684.5)"/><line class="a" x2="2" transform="translate(1046.5 682.5)"/><line class="a" x2="9.633" transform="translate(1039.22 689.382)"/><line class="a" x2="9.633" transform="translate(1039.22 691.147)"/></g></svg>