<svg xmlns="http://www.w3.org/2000/svg" width="29.021" height="18.222" viewBox="0 0 29.021 18.222"><defs><style>.a{fill:none;stroke:#999;stroke-linecap:round;stroke-linejoin:round;stroke-width:0.8px;}.b{fill:#999;}</style></defs><g transform="translate(-21.6 -195.6)"><path class="a" d="M1.94,7.932V4.571H9.046" transform="translate(20.06 191.429)"/><path class="a" d="M1.94,18.476v3.361H9.046" transform="translate(20.06 191.585)"/><path class="a" d="M29.926,7.932V4.571H22.82" transform="translate(20.295 191.429)"/><path class="a" d="M29.926,18.476v3.361H22.82" transform="translate(20.295 191.585)"/><path class="b" d="M1.25-13.125V-.6h22.9V-13.125Zm.87.814H23.306V-1.537H2.12Zm2.4,2.125v1.47H12.7v-1.47Zm11.451,0v3.674h4.907v-3.674ZM4.522-7.981v1.47h5.725v-1.47Zm2.045,2.2a1.5,1.5,0,0,0-1.073.482,3.358,3.358,0,0,0-.537.758,3.8,3.8,0,0,0-.435,1.7H6.157a2.149,2.149,0,0,1,.089-.517,3.053,3.053,0,0,1,.217-.586.361.361,0,0,1,.1-.138l.051-.069.256.367a4.033,4.033,0,0,0,.332.436l.051.046a1.037,1.037,0,0,0,.307.322,1.052,1.052,0,0,0,.613.161,1.3,1.3,0,0,0,.46-.069,1.63,1.63,0,0,0,.281-.138l.051-.046a3.778,3.778,0,0,0,.307-.253l.281-.207a2.471,2.471,0,0,0,.562.253,6.974,6.974,0,0,0,2.581.436v-1.47a5.322,5.322,0,0,1-1.917-.3l-.307-.138a2.309,2.309,0,0,0-.435-.207,1.881,1.881,0,0,0-.588-.092,1.387,1.387,0,0,0-.486.069.936.936,0,0,0-.23.161l-.077.046q-.077.069-.23.184l-.1.092L8.2-4.674a3.556,3.556,0,0,0-.537-.643A1.619,1.619,0,0,0,6.566-5.776Zm9.406,1.47v1.47h4.907v-1.47Z" transform="translate(23.369 211.639)"/></g></svg>