<svg xmlns="http://www.w3.org/2000/svg" width="24.801" height="15.617" viewBox="0 0 24.801 15.617"><defs><style>.a{fill:none;stroke-linecap:round;stroke-linejoin:round;</style></defs><g transform="translate(-21.6 -195.6)"><path class="a" d="M1.94,7.43V4.571H7.983" transform="translate(20.06 191.429)"/><path class="a" d="M1.94,18.476v2.859H7.983" transform="translate(20.06 189.482)"/><path class="a" d="M28.863,7.43V4.571H22.82" transform="translate(17.138 191.429)"/><path class="a" d="M28.863,18.476v2.859H22.82" transform="translate(17.138 189.482)"/><path class="b" d="M1.25-13.125V-2.476H20.727V-13.125Zm.74.692H20.008V-3.27H1.99Zm2.042,1.808v1.25h6.956v-1.25Zm9.738,0V-7.5h4.174v-3.125ZM4.032-8.75V-7.5H8.9V-8.75ZM5.771-6.875a1.271,1.271,0,0,0-.913.41A2.856,2.856,0,0,0,4.4-5.82a3.232,3.232,0,0,0-.37,1.445H5.424A1.828,1.828,0,0,1,5.5-4.814a2.6,2.6,0,0,1,.185-.5.307.307,0,0,1,.087-.117l.043-.059.217.313a3.43,3.43,0,0,0,.283.371l.043.039a.882.882,0,0,0,.261.273.894.894,0,0,0,.522.137,1.1,1.1,0,0,0,.391-.059,1.386,1.386,0,0,0,.239-.117l.043-.039a3.213,3.213,0,0,0,.261-.215l.239-.176a2.1,2.1,0,0,0,.478.215,5.931,5.931,0,0,0,2.2.371v-1.25a4.526,4.526,0,0,1-1.63-.254L9.1-6a1.964,1.964,0,0,0-.37-.176,1.6,1.6,0,0,0-.5-.078,1.18,1.18,0,0,0-.413.059.8.8,0,0,0-.2.137l-.065.039q-.065.059-.2.156l-.087.078-.109-.156a3.025,3.025,0,0,0-.456-.547A1.377,1.377,0,0,0,5.771-6.875Zm8,1.25v1.25h4.174v-1.25Z" transform="translate(22.978 211.263)"/></g></svg>