<svg xmlns="http://www.w3.org/2000/svg" width="27.135" height="13.988" viewBox="0 0 27.135 13.988"><defs><style>.a{fill:#fff;}</style></defs><path class="a" d="M22.922,10.068a.946.946,0,0,0-.945.945V22.784a4.883,4.883,0,0,1-1.332,3.337,4.793,4.793,0,0,1-3.361,1.435H16.46a4.707,4.707,0,0,1-3.318-1.49,4.862,4.862,0,0,1-1.447-3.343V7.537a3.291,3.291,0,0,1,1.048-2.392,3.6,3.6,0,0,1,2.483-.987,3.37,3.37,0,0,1,3.4,3.379V21.719a1.914,1.914,0,0,1-1.756,1.95,1.861,1.861,0,0,1-1.708-1.95v-8.09a.945.945,0,1,0-1.889,0v8.09a3.633,3.633,0,0,0,6.183,2.725,3.825,3.825,0,0,0,1.06-2.725V7.537A5.293,5.293,0,0,0,15.207,2.25,5.314,5.314,0,0,0,11.44,3.794,5.225,5.225,0,0,0,9.872,7.543V22.73a6.768,6.768,0,0,0,1.974,4.723,6.546,6.546,0,0,0,4.608,1.932h.824a6.615,6.615,0,0,0,4.6-1.944,6.8,6.8,0,0,0,1.447-2.1A6.34,6.34,0,0,0,23.86,22.8V11.012A.937.937,0,0,0,22.922,10.068Z" transform="translate(29.385 -9.872) rotate(90)"/></svg>